<?xml version="1.0" encoding="UTF-8" standalone="no"?>
<svg
   xmlns:dc="http://purl.org/dc/elements/1.1/"
   xmlns:cc="http://creativecommons.org/ns#"
   xmlns:rdf="http://www.w3.org/1999/02/22-rdf-syntax-ns#"
   xmlns:svg="http://www.w3.org/2000/svg"
   xmlns="http://www.w3.org/2000/svg"
   viewBox="0 0 348.09067 381.49866"
   height="381.49866"
   width="348.09067"
   xml:space="preserve"
   id="svg2"
   version="1.1"><metadata
     id="metadata8"><rdf:RDF><cc:Work
         rdf:about=""><dc:format>image/svg+xml</dc:format><dc:type
           rdf:resource="http://purl.org/dc/dcmitype/StillImage" /></cc:Work></rdf:RDF></metadata><defs
     id="defs6"><clipPath
       id="clipPath14"
       clipPathUnits="userSpaceOnUse"><path
         id="path12"
         d="M 0,0 H 1555.68 V 1448.64 H 0 Z" /></clipPath><clipPath
       id="clipPath22"
       clipPathUnits="userSpaceOnUse"><path
         id="path20"
         d="M 0,1448.64 H 1555.68 V 0 H 0 Z" /></clipPath></defs><g
     clip-path="url(#clipPath14)"
     transform="matrix(1.3333333,0,0,-1.3333333,-524.22933,1636.72)"
     id="g10"><g
       id="g16"><g
         clip-path="url(#clipPath22)"
         id="g18"><g
           transform="translate(630.068,1012.28)"
           id="g24"><path
             id="path26"
             style="fill:#51de9d;fill-opacity:1;fill-rule:nonzero;stroke:none"
             d="m 0,0 c 0,-17.59 0.02,-35.19 -0.01,-52.79 -0.01,-6.9 -1.91,-8.3 -8.93,-6.95 -13.05,2.53 -22.27,9.8 -27.19,22.2 -1.4,3.55 -2.26,4.92 -5.94,1.55 -13.76,-12.64 -29.4,-22.1 -47.86,-26.27 -21.65,-4.88 -42.69,-2.7 -63.14,5.78 -30.26,12.54 -51.26,34.11 -62.01,65.03 -12.46,35.84 -8.43,70.37 12.54,101.86 18.06,27.12 43.69,43.64 76.55,47.98 16.95,2.24 33.95,0.44 50.91,1.05 2.13,0.08 4.26,0.01 6.39,0.01 4.83,0.02 7.47,1.82 7.21,7.29 -0.55,11.32 -2.9,22.39 -4.27,33.59 -0.07,0.56 -0.48,1.14 -0.42,1.67 0.29,2.33 -1.48,5.65 1.65,6.69 3.01,0.99 4.7,-1.44 5.9,-4.17 2.79,-6.31 5.84,-12.51 8.67,-18.8 1.58,-3.54 2.88,-7.13 7.36,-8.13 1.82,-0.4 2.42,-2.15 1.22,-3.65 -3.62,-4.57 -0.6,-6.48 3.19,-7.06 5.74,-0.89 5.03,-4.06 3.59,-7.84 -2.42,-6.35 -0.56,-9.56 5.88,-11.36 6.13,-1.7 12.32,-0.4 18.42,-1.02 7.57,-0.77 15.42,-0.32 22.11,-5.15 4.34,-3.14 4.45,-5.87 -0.13,-8.66 -5.37,-3.29 -11.36,-4.48 -17.57,-4.74 -7.3,-0.32 -14.61,0.45 -21.91,-1.05 -5.94,-1.22 -8.65,-4.01 -6.89,-10 1.73,-5.92 1.66,-9.55 -5.75,-10.14 -3.28,-0.26 -3.04,-2.89 -1.56,-5.24 1.56,-2.47 1.62,-4.06 -1.8,-5.02 -3.38,-0.95 -5.06,-3.93 -6.13,-7.11 -2.4,-7.13 -6.09,-13.66 -9.27,-20.42 -1.06,-2.24 -2.52,-4.24 -5.24,-3.35 -2.72,0.88 -2.01,3.6 -1.74,5.53 1.63,11.76 3.31,23.51 5.28,35.21 1.1,6.49 -0.34,8.77 -6.83,8.8 -15.27,0.07 -30.61,0.9 -45.81,-0.17 -30.09,-2.13 -54.39,-22.07 -59.47,-53.06 -3.41,-20.78 -1.13,-40.55 11.69,-58.14 8.56,-11.74 20.33,-18.71 34.28,-21.5 18.09,-3.62 35.92,-3.41 52.4,6.86 9.39,5.85 16.57,13.43 21.18,23.58 1.52,3.33 0.51,4.73 -2.43,5.47 -1.83,0.46 -3.79,0.6 -5.7,0.61 -12.37,0.05 -24.75,-0.02 -37.11,0.04 -8.7,0.04 -11.06,3.18 -8.76,11.52 5.23,18.94 20.11,30.26 39.79,30.28 19.92,0.01 39.83,0.02 59.75,0 7.23,-0.02 7.89,-0.68 7.9,-8.02 C 0.02,35.19 0,17.59 0,0" /></g></g></g></g></svg>